<svg xmlns="http://www.w3.org/2000/svg" width="690" height="430" viewBox="0 0 690 430">
<rect width="100%" height="100%" fill="white"/>
<text x="345.0" y="24" text-anchor="middle" font-family="Georgia, serif" font-size="16">Ablation Study on Real Dataset</text>
<text x="345.0" y="45" text-anchor="middle" font-family="Arial, sans-serif" fill="#555" font-size="11">Measured Spark execution; same-machine treatments</text>
<line x1="76" y1="354.0" x2="654" y2="354.0" stroke="#d8d8d8" stroke-dasharray="3 3"/>
<text x="68" y="358.0" text-anchor="end" font-family="Arial, sans-serif" font-size="10">0</text>
<line x1="76" y1="281.0" x2="654" y2="281.0" stroke="#d8d8d8" stroke-dasharray="3 3"/>
<text x="68" y="285.0" text-anchor="end" font-family="Arial, sans-serif" font-size="10">5,049</text>
<line x1="76" y1="208.0" x2="654" y2="208.0" stroke="#d8d8d8" stroke-dasharray="3 3"/>
<text x="68" y="212.0" text-anchor="end" font-family="Arial, sans-serif" font-size="10">10,099</text>
<line x1="76" y1="135.0" x2="654" y2="135.0" stroke="#d8d8d8" stroke-dasharray="3 3"/>
<text x="68" y="139.0" text-anchor="end" font-family="Arial, sans-serif" font-size="10">15,148</text>
<line x1="76" y1="62.0" x2="654" y2="62.0" stroke="#d8d8d8" stroke-dasharray="3 3"/>
<text x="68" y="66.0" text-anchor="end" font-family="Arial, sans-serif" font-size="10">20,198</text>
<line x1="76" y1="62" x2="76" y2="354" stroke="#222"/>
<line x1="76" y1="354" x2="654" y2="354" stroke="#222"/>
<text x="18" y="208.0" transform="rotate(-90 18 208.0)" text-anchor="middle" font-family="Georgia, serif" font-size="12">Avg Wall Clock Time (ms)</text>
<rect x="118.0" y="93.3" width="92" height="260.7" fill="#fefefe" stroke="#222" stroke-width="1.5"/>
<text x="164.0" y="85.3" text-anchor="middle" font-family="Arial, sans-serif" font-size="10">18,034</text>
<text x="164.0" y="375" text-anchor="middle" font-family="Georgia, serif" font-size="12">Baseline</text>
<rect x="252.0" y="155.5" width="92" height="198.5" fill="#d3d3d3" stroke="#222" stroke-width="1.5"/>
<text x="298.0" y="147.5" text-anchor="middle" font-family="Arial, sans-serif" font-size="10">13,728</text>
<text x="298.0" y="375" text-anchor="middle" font-family="Georgia, serif" font-size="12">AES-only</text>
<text x="298.0" y="173.5" text-anchor="middle" font-family="Arial, sans-serif" font-size="10">23.9%</text>
<rect x="386.0" y="144.5" width="92" height="209.5" fill="#919191" stroke="#222" stroke-width="1.5"/>
<text x="432.0" y="136.5" text-anchor="middle" font-family="Arial, sans-serif" font-size="10">14,493</text>
<text x="432.0" y="375" text-anchor="middle" font-family="Georgia, serif" font-size="12">DSCP-only</text>
<text x="432.0" y="162.5" text-anchor="middle" font-family="Arial, sans-serif" font-size="10">19.6%</text>
<rect x="520.0" y="179.6" width="92" height="174.4" fill="#525252" stroke="#222" stroke-width="1.5"/>
<text x="566.0" y="171.6" text-anchor="middle" font-family="Arial, sans-serif" font-size="10">12,062</text>
<text x="566.0" y="375" text-anchor="middle" font-family="Georgia, serif" font-size="12">Proposed</text>
<text x="566.0" y="197.6" text-anchor="middle" font-family="Arial, sans-serif" font-size="10">33.1%</text>
</svg>
