<svg xmlns="http://www.w3.org/2000/svg" width="690" height="430" viewBox="0 0 690 430">
<rect width="100%" height="100%" fill="white"/>
<text x="345.0" y="24" text-anchor="middle" font-family="Georgia, serif" font-size="16">Ablation Study on Synthetic Dataset</text>
<text x="345.0" y="45" text-anchor="middle" font-family="Arial, sans-serif" fill="#555" font-size="11">Measured Spark execution; same-machine treatments</text>
<line x1="76" y1="354.0" x2="654" y2="354.0" stroke="#d8d8d8" stroke-dasharray="3 3"/>
<text x="68" y="358.0" text-anchor="end" font-family="Arial, sans-serif" font-size="10">0</text>
<line x1="76" y1="281.0" x2="654" y2="281.0" stroke="#d8d8d8" stroke-dasharray="3 3"/>
<text x="68" y="285.0" text-anchor="end" font-family="Arial, sans-serif" font-size="10">35,351</text>
<line x1="76" y1="208.0" x2="654" y2="208.0" stroke="#d8d8d8" stroke-dasharray="3 3"/>
<text x="68" y="212.0" text-anchor="end" font-family="Arial, sans-serif" font-size="10">70,703</text>
<line x1="76" y1="135.0" x2="654" y2="135.0" stroke="#d8d8d8" stroke-dasharray="3 3"/>
<text x="68" y="139.0" text-anchor="end" font-family="Arial, sans-serif" font-size="10">106,055</text>
<line x1="76" y1="62.0" x2="654" y2="62.0" stroke="#d8d8d8" stroke-dasharray="3 3"/>
<text x="68" y="66.0" text-anchor="end" font-family="Arial, sans-serif" font-size="10">141,407</text>
<line x1="76" y1="62" x2="76" y2="354" stroke="#222"/>
<line x1="76" y1="354" x2="654" y2="354" stroke="#222"/>
<text x="18" y="208.0" transform="rotate(-90 18 208.0)" text-anchor="middle" font-family="Georgia, serif" font-size="12">Avg Wall Clock Time (ms)</text>
<rect x="118.0" y="161.1" width="92" height="192.9" fill="#fefefe" stroke="#222" stroke-width="1.5"/>
<text x="164.0" y="153.1" text-anchor="middle" font-family="Arial, sans-serif" font-size="10">93,400</text>
<text x="164.0" y="375" text-anchor="middle" font-family="Georgia, serif" font-size="12">Baseline</text>
<rect x="252.0" y="145.6" width="92" height="208.4" fill="#d3d3d3" stroke="#222" stroke-width="1.5"/>
<text x="298.0" y="137.6" text-anchor="middle" font-family="Arial, sans-serif" font-size="10">100,922</text>
<text x="298.0" y="375" text-anchor="middle" font-family="Georgia, serif" font-size="12">AES-only</text>
<text x="298.0" y="163.6" text-anchor="middle" font-family="Arial, sans-serif" font-size="10">-8.1%</text>
<rect x="386.0" y="116.8" width="92" height="237.2" fill="#919191" stroke="#222" stroke-width="1.5"/>
<text x="432.0" y="108.8" text-anchor="middle" font-family="Arial, sans-serif" font-size="10">114,884</text>
<text x="432.0" y="375" text-anchor="middle" font-family="Georgia, serif" font-size="12">DSCP-only</text>
<text x="432.0" y="134.8" text-anchor="middle" font-family="Arial, sans-serif" font-size="10">-23.0%</text>
<rect x="520.0" y="93.3" width="92" height="260.7" fill="#525252" stroke="#222" stroke-width="1.5"/>
<text x="566.0" y="85.3" text-anchor="middle" font-family="Arial, sans-serif" font-size="10">126,257</text>
<text x="566.0" y="375" text-anchor="middle" font-family="Georgia, serif" font-size="12">Proposed</text>
<text x="566.0" y="111.3" text-anchor="middle" font-family="Arial, sans-serif" font-size="10">-35.2%</text>
</svg>
