<svg xmlns="http://www.w3.org/2000/svg" width="700" height="420" viewBox="0 0 700 420">
<rect width="100%" height="100%" fill="white"/>
<text x="350.0" y="25" text-anchor="middle" font-family="Georgia, serif" font-size="16">Baseline vs. Proposed - Observed Spark act WC</text>
<line x1="78" y1="348.0" x2="550" y2="348.0" stroke="#d8d8d8" stroke-dasharray="3 3"/>
<text x="70" y="352.0" text-anchor="end" font-family="Arial, sans-serif" font-size="10">0</text>
<line x1="78" y1="274.8" x2="550" y2="274.8" stroke="#d8d8d8" stroke-dasharray="3 3"/>
<text x="70" y="278.8" text-anchor="end" font-family="Arial, sans-serif" font-size="10">11,704</text>
<line x1="78" y1="201.5" x2="550" y2="201.5" stroke="#d8d8d8" stroke-dasharray="3 3"/>
<text x="70" y="205.5" text-anchor="end" font-family="Arial, sans-serif" font-size="10">23,408</text>
<line x1="78" y1="128.2" x2="550" y2="128.2" stroke="#d8d8d8" stroke-dasharray="3 3"/>
<text x="70" y="132.2" text-anchor="end" font-family="Arial, sans-serif" font-size="10">35,112</text>
<line x1="78" y1="55.0" x2="550" y2="55.0" stroke="#d8d8d8" stroke-dasharray="3 3"/>
<text x="70" y="59.0" text-anchor="end" font-family="Arial, sans-serif" font-size="10">46,816</text>
<line x1="78" y1="55" x2="78" y2="348" stroke="#222"/>
<line x1="78" y1="348" x2="550" y2="348" stroke="#222"/>
<rect x="128" y="86.4" width="54" height="261.6" fill="#ffffff" stroke="#222" stroke-width="1.5"/>
<text x="155" y="79.4" text-anchor="middle" font-family="Arial, sans-serif" font-size="9">41,800</text>
<rect x="192" y="119.4" width="54" height="228.6" fill="#c8c8c8" stroke="#222" stroke-width="1.5"/>
<text x="219" y="112.4" text-anchor="middle" font-family="Arial, sans-serif" font-size="9">36,527</text>
<text x="186" y="370" text-anchor="middle" font-family="Georgia, serif" font-size="12">Synthetic</text>
<text x="219" y="87" font-family="Arial, sans-serif" font-size="10">12.6% reduced</text>
<rect x="338" y="235.1" width="54" height="112.9" fill="#ffffff" stroke="#222" stroke-width="1.5"/>
<text x="365" y="228.1" text-anchor="middle" font-family="Arial, sans-serif" font-size="9">18,034</text>
<rect x="402" y="272.5" width="54" height="75.5" fill="#c8c8c8" stroke="#222" stroke-width="1.5"/>
<text x="429" y="265.5" text-anchor="middle" font-family="Arial, sans-serif" font-size="9">12,062</text>
<text x="396" y="370" text-anchor="middle" font-family="Georgia, serif" font-size="12">Real</text>
<text x="429" y="87" font-family="Arial, sans-serif" font-size="10">33.1% reduced</text>
<rect x="575" y="145" width="18" height="12" fill="#ffffff" stroke="#222"/><text x="600" y="155" font-family="Arial, sans-serif" font-size="11">Baseline</text>
<rect x="575" y="168" width="18" height="12" fill="#c8c8c8" stroke="#222"/><text x="600" y="178" font-family="Arial, sans-serif" font-size="11">Proposed</text>
</svg>
