<svg xmlns="http://www.w3.org/2000/svg" width="700" height="420" viewBox="0 0 700 420">
<rect width="100%" height="100%" fill="white"/>
<text x="350.0" y="25" text-anchor="middle" font-family="Georgia, serif" font-size="16">Baseline vs. Proposed - Observed Spark act WC</text>
<line x1="78" y1="348.0" x2="550" y2="348.0" stroke="#d8d8d8" stroke-dasharray="3 3"/>
<text x="70" y="352.0" text-anchor="end" font-family="Arial, sans-serif" font-size="10">0</text>
<line x1="78" y1="274.8" x2="550" y2="274.8" stroke="#d8d8d8" stroke-dasharray="3 3"/>
<text x="70" y="278.8" text-anchor="end" font-family="Arial, sans-serif" font-size="10">256,809</text>
<line x1="78" y1="201.5" x2="550" y2="201.5" stroke="#d8d8d8" stroke-dasharray="3 3"/>
<text x="70" y="205.5" text-anchor="end" font-family="Arial, sans-serif" font-size="10">513,618</text>
<line x1="78" y1="128.2" x2="550" y2="128.2" stroke="#d8d8d8" stroke-dasharray="3 3"/>
<text x="70" y="132.2" text-anchor="end" font-family="Arial, sans-serif" font-size="10">770,427</text>
<line x1="78" y1="55.0" x2="550" y2="55.0" stroke="#d8d8d8" stroke-dasharray="3 3"/>
<text x="70" y="59.0" text-anchor="end" font-family="Arial, sans-serif" font-size="10">1,027,237</text>
<line x1="78" y1="55" x2="78" y2="348" stroke="#222"/>
<line x1="78" y1="348" x2="550" y2="348" stroke="#222"/>
<rect x="128" y="336.1" width="54" height="11.9" fill="#ffffff" stroke="#222" stroke-width="1.5"/>
<text x="155" y="329.1" text-anchor="middle" font-family="Arial, sans-serif" font-size="9">41,800</text>
<rect x="192" y="337.6" width="54" height="10.4" fill="#c8c8c8" stroke="#222" stroke-width="1.5"/>
<text x="219" y="330.6" text-anchor="middle" font-family="Arial, sans-serif" font-size="9">36,527</text>
<text x="186" y="370" text-anchor="middle" font-family="Georgia, serif" font-size="12">Synthetic</text>
<text x="219" y="87" font-family="Arial, sans-serif" font-size="10">12.6% reduced</text>
<rect x="338" y="86.4" width="54" height="261.6" fill="#ffffff" stroke="#222" stroke-width="1.5"/>
<text x="365" y="79.4" text-anchor="middle" font-family="Arial, sans-serif" font-size="9">917,176</text>
<rect x="402" y="239.7" width="54" height="108.3" fill="#c8c8c8" stroke="#222" stroke-width="1.5"/>
<text x="429" y="232.7" text-anchor="middle" font-family="Arial, sans-serif" font-size="9">379,637</text>
<text x="396" y="370" text-anchor="middle" font-family="Georgia, serif" font-size="12">Real</text>
<text x="429" y="87" font-family="Arial, sans-serif" font-size="10">58.6% reduced</text>
<rect x="575" y="145" width="18" height="12" fill="#ffffff" stroke="#222"/><text x="600" y="155" font-family="Arial, sans-serif" font-size="11">Baseline</text>
<rect x="575" y="168" width="18" height="12" fill="#c8c8c8" stroke="#222"/><text x="600" y="178" font-family="Arial, sans-serif" font-size="11">Proposed</text>
</svg>
